<svg width="32" height="32" viewBox="0 0 32 32" fill="none" xmlns="http://www.w3.org/2000/svg">
<rect width="32" height="32" rx="5" fill="#262F3F"/>
<path d="M12.7695 18.8003H14.9258C14.8135 19.8335 14.5177 20.7581 14.0386 21.5742C13.5594 22.3903 12.8818 23.0379 12.0059 23.5171C11.1299 23.9888 10.0368 24.2246 8.72656 24.2246C7.76823 24.2246 6.896 24.0449 6.10986 23.6855C5.33122 23.3262 4.66113 22.8171 4.09961 22.1582C3.53809 21.4919 3.10384 20.6945 2.79688 19.7661C2.4974 18.8302 2.34766 17.7896 2.34766 16.644V15.0156C2.34766 13.8701 2.4974 12.8332 2.79688 11.9048C3.10384 10.9689 3.54183 10.1678 4.11084 9.50146C4.68734 8.83512 5.37988 8.32227 6.18848 7.96289C6.99707 7.60352 7.90674 7.42383 8.91748 7.42383C10.1528 7.42383 11.1973 7.65592 12.0508 8.12012C12.9043 8.58431 13.5669 9.22819 14.0386 10.0518C14.5177 10.8678 14.8135 11.8149 14.9258 12.8931H12.7695C12.6647 12.1294 12.4701 11.4743 12.1855 10.9277C11.901 10.3737 11.4967 9.94694 10.9727 9.64746C10.4486 9.34798 9.76351 9.19824 8.91748 9.19824C8.19124 9.19824 7.55111 9.33675 6.99707 9.61377C6.45052 9.89079 5.99007 10.2839 5.61572 10.793C5.24886 11.3021 4.97184 11.9123 4.78467 12.6235C4.59749 13.3348 4.50391 14.1247 4.50391 14.9932V16.644C4.50391 17.4451 4.58626 18.1976 4.75098 18.9014C4.92318 19.6051 5.18148 20.2228 5.52588 20.7544C5.87028 21.286 6.30827 21.7052 6.83984 22.0122C7.37142 22.3117 8.00033 22.4614 8.72656 22.4614C9.64746 22.4614 10.3812 22.3154 10.9277 22.0234C11.4743 21.7314 11.8861 21.3122 12.1631 20.7656C12.4476 20.2191 12.6497 19.564 12.7695 18.8003ZM27.751 18.8003H29.9072C29.7949 19.8335 29.4992 20.7581 29.02 21.5742C28.5409 22.3903 27.8633 23.0379 26.9873 23.5171C26.1113 23.9888 25.0182 24.2246 23.708 24.2246C22.7497 24.2246 21.8774 24.0449 21.0913 23.6855C20.3127 23.3262 19.6426 22.8171 19.0811 22.1582C18.5195 21.4919 18.0853 20.6945 17.7783 19.7661C17.4788 18.8302 17.3291 17.7896 17.3291 16.644V15.0156C17.3291 13.8701 17.4788 12.8332 17.7783 11.9048C18.0853 10.9689 18.5233 10.1678 19.0923 9.50146C19.6688 8.83512 20.3613 8.32227 21.1699 7.96289C21.9785 7.60352 22.8882 7.42383 23.8989 7.42383C25.1343 7.42383 26.1787 7.65592 27.0322 8.12012C27.8857 8.58431 28.5483 9.22819 29.02 10.0518C29.4992 10.8678 29.7949 11.8149 29.9072 12.8931H27.751C27.6462 12.1294 27.4515 11.4743 27.167 10.9277C26.8825 10.3737 26.4782 9.94694 25.9541 9.64746C25.43 9.34798 24.745 9.19824 23.8989 9.19824C23.1727 9.19824 22.5326 9.33675 21.9785 9.61377C21.432 9.89079 20.9715 10.2839 20.5972 10.793C20.2303 11.3021 19.9533 11.9123 19.7661 12.6235C19.5789 13.3348 19.4854 14.1247 19.4854 14.9932V16.644C19.4854 17.4451 19.5677 18.1976 19.7324 18.9014C19.9046 19.6051 20.1629 20.2228 20.5073 20.7544C20.8517 21.286 21.2897 21.7052 21.8213 22.0122C22.3529 22.3117 22.9818 22.4614 23.708 22.4614C24.6289 22.4614 25.3626 22.3154 25.9092 22.0234C26.4557 21.7314 26.8675 21.3122 27.1445 20.7656C27.429 20.2191 27.6312 19.564 27.751 18.8003Z" fill="#0FD15D"/>
</svg>
